<?xml version="1.0" encoding="utf-8"?>
<!-- Generator: Adobe Illustrator 19.0.1, SVG Export Plug-In . SVG Version: 6.00 Build 0)  -->
<svg version="1.1" id="Layer_1" xmlns="http://www.w3.org/2000/svg" xmlns:xlink="http://www.w3.org/1999/xlink" x="0px" y="0px"
	 viewBox="0 0 200 155.2" style="enable-background:new 0 0 200 155.2;" xml:space="preserve">
<style type="text/css">
	.st0{fill:#FFFFFF;}
	.st1{fill:#67C7C1;}
</style>
<g>
	<g>
		<path class="st0" d="M7.4,145.8L7.4,145.8c0-4.5,3.4-8.3,8-8.3c2.6,0,4.2,0.8,5.7,2.1c0.2,0.2,0.4,0.4,0.4,0.7
			c0,0.5-0.4,0.9-0.9,0.9c-0.2,0-0.5-0.1-0.6-0.2c-1.2-1.1-2.6-1.8-4.6-1.8c-3.5,0-6.1,2.9-6.1,6.5v0c0,3.7,2.7,6.6,6.1,6.6
			c2,0,3.4-0.7,4.7-1.9c0.1-0.1,0.3-0.2,0.6-0.2c0.5,0,0.9,0.4,0.9,0.9c0,0.3-0.1,0.5-0.3,0.6c-1.6,1.4-3.3,2.3-5.9,2.3
			C10.8,153.9,7.4,150.3,7.4,145.8z"/>
		<path class="st0" d="M26.6,152.5l6.4-14.1c0.2-0.5,0.6-0.8,1.1-0.8h0.1c0.5,0,0.9,0.3,1.1,0.8l6.4,14.1c0.1,0.2,0.1,0.3,0.1,0.5
			c0,0.5-0.4,0.9-0.9,0.9c-0.4,0-0.7-0.3-0.9-0.7l-1.7-3.7h-8.7l-1.7,3.7c-0.2,0.4-0.5,0.6-0.9,0.6c-0.5,0-0.8-0.4-0.8-0.8
			C26.5,152.8,26.5,152.7,26.6,152.5z M37.9,147.8l-3.7-8.1l-3.7,8.1H37.9z"/>
		<path class="st0" d="M47.3,151.8c-0.2-0.1-0.3-0.4-0.3-0.7c0-0.5,0.4-0.9,0.9-0.9c0.2,0,0.4,0.1,0.5,0.2c1.5,1.3,3,1.9,5,1.9
			c2.1,0,3.5-1.1,3.5-2.7v0c0-1.5-0.8-2.3-4.1-3c-3.7-0.8-5.3-2-5.3-4.6v0c0-2.5,2.2-4.3,5.2-4.3c2.1,0,3.6,0.5,5.1,1.6
			c0.2,0.1,0.4,0.4,0.4,0.7c0,0.5-0.4,0.9-0.9,0.9c-0.2,0-0.4,0-0.5-0.2c-1.3-1-2.6-1.4-4.1-1.4c-2.1,0-3.4,1.1-3.4,2.6v0
			c0,1.5,0.8,2.3,4.3,3.1c3.5,0.8,5.2,2.1,5.2,4.5v0c0,2.7-2.3,4.5-5.4,4.5C51,153.9,49.1,153.2,47.3,151.8z"/>
		<path class="st0" d="M63.8,152.5l6.4-14.1c0.2-0.5,0.6-0.8,1.1-0.8h0.1c0.5,0,0.9,0.3,1.1,0.8l6.4,14.1c0.1,0.2,0.1,0.3,0.1,0.5
			c0,0.5-0.4,0.9-0.9,0.9c-0.4,0-0.7-0.3-0.9-0.7l-1.7-3.7h-8.7l-1.7,3.7c-0.2,0.4-0.5,0.6-0.9,0.6c-0.5,0-0.8-0.4-0.8-0.8
			C63.7,152.8,63.8,152.7,63.8,152.5z M75.1,147.8l-3.7-8.1l-3.7,8.1H75.1z"/>
		<path class="st0" d="M85,139.4c0-1,0.8-1.7,1.7-1.7h0.4c0.7,0,1.3,0.4,1.6,0.9l4.2,6.9l4.2-6.9c0.4-0.6,0.9-0.9,1.6-0.9h0.4
			c1,0,1.7,0.8,1.7,1.7v12.6c0,1-0.8,1.7-1.7,1.7c-1,0-1.7-0.8-1.7-1.7v-7.9l-3.1,4.7c-0.4,0.5-0.8,0.9-1.5,0.9
			c-0.6,0-1.1-0.3-1.5-0.9l-3-4.7v7.9c0,1-0.8,1.7-1.7,1.7s-1.7-0.7-1.7-1.7V139.4z"/>
		<path class="st0" d="M107.4,151.9v-12.4c0-1,0.8-1.7,1.7-1.7h8.8c0.9,0,1.6,0.7,1.6,1.6c0,0.9-0.7,1.5-1.6,1.5h-7.1v3.2h6.1
			c0.9,0,1.6,0.7,1.6,1.6c0,0.9-0.7,1.5-1.6,1.5h-6.1v3.3h7.2c0.9,0,1.6,0.7,1.6,1.6c0,0.9-0.7,1.5-1.6,1.5h-8.9
			C108.2,153.7,107.4,152.9,107.4,151.9z"/>
		<path class="st0" d="M125,152c-0.4-0.3-0.7-0.8-0.7-1.3c0-0.9,0.7-1.6,1.6-1.6c0.5,0,0.8,0.2,1,0.3c1.2,0.9,2.5,1.4,4.1,1.4
			c1.4,0,2.3-0.6,2.3-1.5v0c0-0.9-0.5-1.3-3.2-2c-3.2-0.8-5.3-1.7-5.3-4.9v0c0-2.9,2.3-4.8,5.6-4.8c1.9,0,3.6,0.5,5,1.4
			c0.4,0.2,0.8,0.7,0.8,1.4c0,0.9-0.7,1.6-1.6,1.6c-0.3,0-0.6-0.1-0.9-0.2c-1.2-0.7-2.2-1.1-3.3-1.1c-1.3,0-2,0.6-2,1.4v0
			c0,1,0.7,1.4,3.4,2.1c3.2,0.8,5,2,5,4.8v0c0,3.2-2.4,4.9-5.8,4.9C128.9,153.9,126.8,153.3,125,152z"/>
		<path class="st0" d="M146,141h-3.4c-0.9,0-1.6-0.7-1.6-1.6c0-0.9,0.7-1.6,1.6-1.6h10.2c0.9,0,1.6,0.7,1.6,1.6
			c0,0.9-0.7,1.6-1.6,1.6h-3.4v11.1c0,1-0.8,1.7-1.7,1.7c-1,0-1.7-0.8-1.7-1.7V141z"/>
		<path class="st0" d="M159.7,139.5c0-1,0.8-1.7,1.7-1.7h5.5c2,0,3.6,0.6,4.6,1.6c0.9,0.9,1.4,2.1,1.4,3.6v0c0,2.5-1.2,4-3.2,4.8
			l2.4,3c0.3,0.4,0.6,0.8,0.6,1.3c0,1-0.8,1.6-1.7,1.6c-0.8,0-1.3-0.4-1.7-0.9l-3.4-4.3h-2.8v3.5c0,1-0.8,1.7-1.7,1.7
			c-1,0-1.7-0.8-1.7-1.7V139.5z M166.7,145.5c1.7,0,2.7-0.9,2.7-2.2v0c0-1.5-1-2.3-2.7-2.3h-3.5v4.6H166.7z"/>
		<path class="st0" d="M177.9,151.4l5.5-12.5c0.4-0.9,1.1-1.4,2-1.4h0.2c1,0,1.6,0.5,2,1.4l5.5,12.5c0.1,0.2,0.2,0.5,0.2,0.7
			c0,0.9-0.7,1.7-1.7,1.7c-0.8,0-1.4-0.5-1.7-1.2l-1.1-2.5h-7l-1.1,2.6c-0.3,0.7-0.9,1.1-1.6,1.1c-0.9,0-1.6-0.7-1.6-1.6
			C177.7,151.9,177.8,151.7,177.9,151.4z M187.8,147l-2.2-5.2l-2.2,5.2H187.8z"/>
	</g>
	<g>
		<g id="Shape_2_copy_2">
			<g>
				<path class="st1" d="M140.4,38.1c0-0.2,0-0.4-0.1-0.6c0-0.1,0-0.1,0-0.2c0-0.1-0.1-0.3-0.1-0.4c0-0.1,0-0.1-0.1-0.2
					c-0.1-0.1-0.1-0.3-0.2-0.4c0,0,0-0.1-0.1-0.1c-0.1-0.2-0.2-0.3-0.4-0.4c0,0-0.1-0.1-0.1-0.1c-0.1-0.1-0.2-0.2-0.3-0.3
					c-0.1,0-0.1-0.1-0.2-0.1c-0.1-0.1-0.2-0.1-0.3-0.2c-0.1,0-0.1-0.1-0.2-0.1c0,0-0.1,0-0.1,0l-36.6-13.3c-0.7-0.3-1.5-0.3-2.3,0
					L62.7,35c0,0-0.1,0-0.1,0c-0.1,0-0.1,0.1-0.2,0.1c-0.1,0.1-0.2,0.1-0.3,0.2c-0.1,0-0.1,0.1-0.2,0.1c-0.1,0.1-0.2,0.2-0.3,0.3
					c0,0-0.1,0.1-0.1,0.1c-0.1,0.1-0.3,0.3-0.4,0.4c0,0,0,0.1-0.1,0.1c-0.1,0.1-0.2,0.3-0.2,0.4c0,0.1-0.1,0.1-0.1,0.2
					c0,0.1-0.1,0.3-0.1,0.4c0,0.1,0,0.1,0,0.2c0,0.2-0.1,0.4-0.1,0.6v46.4c0,0,0,0.1,0,0.1c0,0.1,0,0.2,0,0.4c0,0.1,0,0.2,0,0.3
					c0,0.1,0.1,0.2,0.1,0.3c0,0.1,0.1,0.2,0.1,0.3c0,0.1,0.1,0.2,0.1,0.3c0.1,0.1,0.1,0.2,0.2,0.3c0.1,0.1,0.1,0.2,0.2,0.2
					c0.1,0.1,0.1,0.2,0.2,0.2c0.1,0.1,0.2,0.1,0.2,0.2c0.1,0.1,0.2,0.1,0.3,0.2c0.1,0,0.2,0.1,0.2,0.1c0.1,0.1,0.2,0.1,0.4,0.2
					c0,0,0,0,0.1,0l36.6,13.3c0.1,0,0.2,0,0.2,0.1c0.1,0,0.2,0.1,0.3,0.1c0.2,0,0.4,0.1,0.6,0.1s0.4,0,0.6-0.1c0.1,0,0.2,0,0.3-0.1
					c0.1,0,0.2,0,0.3-0.1l36.6-13.3c0,0,0,0,0.1,0c0.1,0,0.2-0.1,0.4-0.2c0.1,0,0.2-0.1,0.2-0.1c0.1-0.1,0.2-0.1,0.3-0.2
					c0.1-0.1,0.2-0.1,0.2-0.2c0.1-0.1,0.1-0.2,0.2-0.2c0.1-0.1,0.1-0.2,0.2-0.2c0.1-0.1,0.1-0.2,0.2-0.3c0-0.1,0.1-0.2,0.1-0.3
					c0-0.1,0.1-0.2,0.1-0.3c0-0.1,0.1-0.2,0.1-0.3c0-0.1,0-0.2,0-0.3c0-0.1,0-0.2,0-0.4c0,0,0-0.1,0-0.1V38.1z M67.1,42.9l30,10.8
					v39.4l-30-10.8V42.9z M103.8,53.7l30-10.8v39.4l-30,10.8V53.7z M100.4,28.4l26.9,9.7l-26.9,9.7l-26.9-9.7L100.4,28.4z"/>
			</g>
		</g>
		<g id="Shape_2_copy_3">
			<g>
				<path class="st0" d="M160.8,25.8c0-0.3,0-0.6-0.1-0.9c0-0.1,0-0.2-0.1-0.3c0-0.2-0.1-0.4-0.2-0.6c0-0.1-0.1-0.2-0.1-0.3
					c-0.1-0.2-0.2-0.4-0.3-0.6c0-0.1-0.1-0.1-0.1-0.2c-0.2-0.2-0.3-0.5-0.6-0.7c-0.1-0.1-0.1-0.1-0.2-0.2c-0.2-0.1-0.3-0.3-0.5-0.4
					c-0.1-0.1-0.2-0.1-0.3-0.2c-0.2-0.1-0.3-0.2-0.5-0.3c-0.1-0.1-0.2-0.1-0.3-0.1c0,0-0.1,0-0.1-0.1L102.2,1.1
					c-1.1-0.4-2.3-0.4-3.4,0L43.4,21.1c0,0-0.1,0-0.1,0.1c-0.1,0-0.2,0.1-0.3,0.1c-0.2,0.1-0.3,0.2-0.5,0.3
					c-0.1,0.1-0.2,0.1-0.3,0.2c-0.2,0.1-0.3,0.3-0.5,0.4c-0.1,0.1-0.1,0.1-0.2,0.2c-0.2,0.2-0.4,0.4-0.6,0.7c0,0.1-0.1,0.1-0.1,0.2
					c-0.1,0.2-0.2,0.4-0.3,0.6c0,0.1-0.1,0.2-0.1,0.3c-0.1,0.2-0.1,0.4-0.2,0.6c0,0.1,0,0.2-0.1,0.3c-0.1,0.3-0.1,0.6-0.1,0.9V96
					c0,0,0,0.1,0,0.1c0,0.2,0,0.4,0.1,0.5c0,0.1,0,0.3,0.1,0.4c0,0.2,0.1,0.3,0.1,0.5c0.1,0.2,0.1,0.3,0.2,0.5
					c0.1,0.1,0.1,0.3,0.2,0.4c0.1,0.1,0.2,0.3,0.3,0.4c0.1,0.1,0.2,0.2,0.3,0.4c0.1,0.1,0.2,0.3,0.3,0.4c0.1,0.1,0.2,0.2,0.4,0.3
					c0.1,0.1,0.3,0.2,0.4,0.3c0.1,0.1,0.2,0.1,0.3,0.2c0.2,0.1,0.4,0.2,0.6,0.3c0,0,0.1,0,0.1,0l55.3,20.1c0.1,0,0.3,0.1,0.4,0.1
					c0.1,0,0.3,0.1,0.4,0.1c0.3,0.1,0.6,0.1,0.9,0.1c0.3,0,0.6,0,0.9-0.1c0.1,0,0.3-0.1,0.4-0.1c0.1,0,0.3-0.1,0.4-0.1l55.3-20.1
					c0,0,0.1,0,0.1,0c0.2-0.1,0.4-0.2,0.6-0.3c0.1-0.1,0.2-0.1,0.3-0.2c0.1-0.1,0.3-0.2,0.4-0.3c0.1-0.1,0.2-0.2,0.4-0.3
					c0.1-0.1,0.2-0.2,0.3-0.4c0.1-0.1,0.2-0.2,0.3-0.4c0.1-0.1,0.2-0.3,0.2-0.4c0.1-0.1,0.2-0.3,0.2-0.4c0.1-0.1,0.1-0.3,0.2-0.5
					c0.1-0.2,0.1-0.3,0.1-0.5c0-0.1,0-0.3,0.1-0.4c0-0.2,0.1-0.4,0.1-0.6c0,0,0-0.1,0-0.1V25.8z M50.1,33l45.3,16.4v59.5L50.1,92.5
					V33z M105.5,49.4L150.7,33v59.5l-45.3,16.4V49.4z M100.4,11.1l40.6,14.7l-40.6,14.7L59.8,25.8L100.4,11.1z"/>
			</g>
		</g>
	</g>
</g>
</svg>
